<svg xmlns:xlink="http://www.w3.org/1999/xlink" xmlns="http://www.w3.org/2000/svg" width="1000" height="550" style="background-color: white; font-family: ui-sans-serif, system-ui, -apple-system, BlinkMacSystemFont, &quot;Segoe UI&quot;, Roboto, &quot;Helvetica Neue&quot;, Arial, &quot;Noto Sans&quot;, sans-serif, &quot;Apple Color Emoji&quot;, &quot;Segoe UI Emoji&quot;, &quot;Segoe UI Symbol&quot;, &quot;Noto Color Emoji&quot;;"><g transform="translate(0, 52.899993896484375)"><g><path d="M435,293C409.33333333333337,319,383.6666666666667,345,358,345C332.3333333333333,345,306.66666666666663,319,281,293" marker-end="url(#arrow)" stroke="#000000" stroke-width="1.5px" opacity="0.1" fill="none"></path><g transform="translate(358, 349)"><rect rx="3" fill="#FFFFFF" opacity="0.9" x="-7.720703125" y="-7.699999999999999" height="9.9" width="15.44140625"></rect><text font-size="0.5rem" font-weight="500" opacity="0.5" style="text-anchor: middle;">56</text></g></g><g><path d="M340,293C314.3333333333333,319,288.66666666666663,345,263,345C237.33333333333334,345,211.66666666666669,319,186,293" marker-end="url(#arrow)" stroke="#000000" stroke-width="1.50792px" opacity="0.1079156887109393" fill="none"></path><g transform="translate(263, 349)"><rect rx="3" fill="#FFFFFF" opacity="0.9" x="-9.428733825683594" y="-7.699999999999999" height="9.9" width="18.857467651367188"></rect><text font-size="0.5023747066132818rem" font-weight="500" opacity="0.5158313774218786" style="text-anchor: middle;">142</text></g></g><g><path d="M530,293C520.4166666666666,301.5,510.8333333333333,310,501,310C491.1666666666667,310,481.08333333333337,301.5,471,293" marker-end="url(#arrow)" stroke="#000000" stroke-width="1.50856px" opacity="0.10855998895485297" fill="none"></path><g transform="translate(501, 314)"><rect rx="3" fill="#FFFFFF" opacity="0.9" x="-9.433624267578125" y="-7.699999999999999" height="9.9" width="18.86724853515625"></rect><text font-size="0.5025679966864559rem" font-weight="500" opacity="0.5171199779097059" style="text-anchor: middle;">149</text></g></g><g><path d="M625,293C599.3333333333333,319,573.6666666666666,345,548,345C522.3333333333334,345,496.6666666666667,319,471,293" marker-end="url(#arrow)" stroke="#000000" stroke-width="1.50874px" opacity="0.1087440747388283" fill="none"></path><g transform="translate(548, 349)"><rect rx="3" fill="#FFFFFF" opacity="0.9" x="-8.46875" y="-7.699999999999999" height="9.9" width="16.9375"></rect><text font-size="0.5026232224216485rem" font-weight="500" opacity="0.5174881494776566" style="text-anchor: middle;">151</text></g></g><g><path d="M625,293C624.0666666666666,294.6538461538462,623.1333333333333,296.3076923076923,622,300C620.8666666666667,303.6923076923077,619.5333333333333,309.42307692307696,623,316C626.4666666666667,322.57692307692304,634.7333333333333,330,643,330C651.2666666666667,330,659.5333333333332,322.5769230769231,663,316C666.4666666666668,309.4230769230769,665.1333333333334,303.6923076923077,664,300C662.8666666666666,296.3076923076923,661.9333333333333,294.6538461538462,661,293" marker-end="url(#arrow)" stroke="#000000" stroke-width="1.51243px" opacity="0.11242579041833495" fill="none"></path><g transform="translate(643, 334)"><rect rx="3" fill="#FFFFFF" opacity="0.9" x="-8.4921875" y="-7.699999999999999" height="9.9" width="16.984375"></rect><text font-size="0.5037277371255005rem" font-weight="500" opacity="0.5248515808366699" style="text-anchor: middle;">191</text></g></g><g><path d="M530,293C472.66666666666663,353.5,415.3333333333333,414,358,414C300.6666666666667,414,243.33333333333334,353.5,186,293" marker-end="url(#arrow)" stroke="#000000" stroke-width="1.51344px" opacity="0.11343826223019927" fill="none"></path><g transform="translate(358, 418)"><rect rx="3" fill="#FFFFFF" opacity="0.9" x="-9.974716186523438" y="-7.699999999999999" height="9.9" width="19.949432373046875"></rect><text font-size="0.5040314786690597rem" font-weight="500" opacity="0.5268765244603986" style="text-anchor: middle;">202</text></g></g><g><path d="M281,257C291.08333333333337,248.5,301.1666666666667,240,311,240C320.8333333333333,240,330.41666666666663,248.5,340,257" marker-end="url(#arrow)" stroke="#000000" stroke-width="1.51399px" opacity="0.11399051958212528" fill="none"></path><g transform="translate(311, 244)"><rect rx="3" fill="#FFFFFF" opacity="0.9" x="-9.974716186523438" y="-7.699999999999999" height="9.9" width="19.949432373046875"></rect><text font-size="0.5041971558746375rem" font-weight="500" opacity="0.5279810391642505" style="text-anchor: middle;">208</text></g></g><g><path d="M281,257C386.0833333333333,144.5,491.16666666666663,32,596,32C700.8333333333334,32,805.4166666666667,144.5,910,257" marker-end="url(#arrow)" stroke="#000000" stroke-width="1.51611px" opacity="0.1161075060978416" fill="none"></path><g transform="translate(596, 36)"><rect rx="3" fill="#FFFFFF" opacity="0.9" x="-9.109375" y="-7.699999999999999" height="9.9" width="18.21875"></rect><text font-size="0.5048322518293524rem" font-weight="500" opacity="0.5322150121956832" style="text-anchor: middle;">231</text></g></g><g><path d="M625,293C552.0833333333334,371,479.1666666666667,449,406,449C332.8333333333333,449,259.41666666666663,371,186,293" marker-end="url(#arrow)" stroke="#000000" stroke-width="1.51684px" opacity="0.11684384923374293" fill="none"></path><g transform="translate(406, 453)"><rect rx="3" fill="#FFFFFF" opacity="0.9" x="-9.985809326171875" y="-7.699999999999999" height="9.9" width="19.97161865234375"></rect><text font-size="0.5050531547701229rem" font-weight="500" opacity="0.5336876984674859" style="text-anchor: middle;">239</text></g></g><g><path d="M186,257C259.41666666666663,179,332.8333333333333,101,406,101C479.1666666666667,101,552.0833333333334,179,625,257" marker-end="url(#arrow)" stroke="#000000" stroke-width="1.52117px" opacity="0.12116986515716324" fill="none"></path><g transform="translate(406, 105)"><rect rx="3" fill="#FFFFFF" opacity="0.9" x="-9.996917724609375" y="-7.699999999999999" height="9.9" width="19.99383544921875"></rect><text font-size="0.5063509595471489rem" font-weight="500" opacity="0.5423397303143265" style="text-anchor: middle;">286</text></g></g><g><path d="M471,257C544.4166666666667,179,617.8333333333334,101,691,101C764.1666666666666,101,837.0833333333333,179,910,257" marker-end="url(#arrow)" stroke="#000000" stroke-width="1.52246px" opacity="0.12245846564499058" fill="none"></path><g transform="translate(691, 105)"><rect rx="3" fill="#FFFFFF" opacity="0.9" x="-9.996917724609375" y="-7.699999999999999" height="9.9" width="19.99383544921875"></rect><text font-size="0.5067375396934972rem" font-weight="500" opacity="0.5449169312899811" style="text-anchor: middle;">300</text></g></g><g><path d="M91,257C164.41666666666666,179,237.83333333333331,101,311,101C384.1666666666667,101,457.08333333333337,179,530,257" marker-end="url(#arrow)" stroke="#000000" stroke-width="1.52991px" opacity="0.12991393989599154" fill="none"></path><g transform="translate(311, 105)"><rect rx="3" fill="#FFFFFF" opacity="0.9" x="-9.1640625" y="-7.699999999999999" height="9.9" width="18.328125"></rect><text font-size="0.5089741819687975rem" font-weight="500" opacity="0.5598278797919831" style="text-anchor: middle;">381</text></g></g><g><path d="M661,257C686.6666666666667,231,712.3333333333334,205,738,205C763.6666666666666,205,789.3333333333333,231,815,257" marker-end="url(#arrow)" stroke="#000000" stroke-width="1.5301px" opacity="0.13009802567996687" fill="none"></path><g transform="translate(738, 209)"><rect rx="3" fill="#FFFFFF" opacity="0.9" x="-10.019119262695312" y="-7.699999999999999" height="9.9" width="20.038238525390625"></rect><text font-size="0.5090294077039901rem" font-weight="500" opacity="0.5601960513599338" style="text-anchor: middle;">383</text></g></g><g><path d="M186,257C243.33333333333334,196.5,300.6666666666667,136,358,136C415.3333333333333,136,472.66666666666663,196.5,530,257" marker-end="url(#arrow)" stroke="#000000" stroke-width="1.53406px" opacity="0.1340558700354365" fill="none"></path><g transform="translate(358, 140)"><rect rx="3" fill="#FFFFFF" opacity="0.9" x="-10.615890502929688" y="-7.699999999999999" height="9.9" width="21.231781005859375"></rect><text font-size="0.510216761010631rem" font-weight="500" opacity="0.5681117400708731" style="text-anchor: middle;">426</text></g></g><g><path d="M471,257C481.08333333333337,248.5,491.1666666666667,240,501,240C510.8333333333333,240,520.4166666666666,248.5,530,257" marker-end="url(#arrow)" stroke="#000000" stroke-width="1.53958px" opacity="0.1395784435546965" fill="none"></path><g transform="translate(501, 244)"><rect rx="3" fill="#FFFFFF" opacity="0.9" x="-10.627204895019531" y="-7.699999999999999" height="9.9" width="21.254409790039062"></rect><text font-size="0.5118735330664089rem" font-weight="500" opacity="0.579156887109393" style="text-anchor: middle;">486</text></g></g><g><path d="M471,257C496.6666666666667,231,522.3333333333334,205,548,205C573.6666666666666,205,599.3333333333333,231,625,257" marker-end="url(#arrow)" stroke="#000000" stroke-width="1.54289px" opacity="0.1428919876662525" fill="none"></path><g transform="translate(548, 209)"><rect rx="3" fill="#FFFFFF" opacity="0.9" x="-10.05242919921875" y="-7.699999999999999" height="9.9" width="20.1048583984375"></rect><text font-size="0.5128675962998758rem" font-weight="500" opacity="0.5857839753325049" style="text-anchor: middle;">522</text></g></g><g><path d="M530,293C529.0666666666666,294.6538461538462,528.1333333333333,296.3076923076923,527,300C525.8666666666667,303.6923076923077,524.5333333333334,309.42307692307696,528,316C531.4666666666666,322.57692307692304,539.7333333333333,330,548,330C556.2666666666667,330,564.5333333333334,322.5769230769231,568,316C571.4666666666666,309.4230769230769,570.1333333333333,303.6923076923077,569,300C567.8666666666667,296.3076923076923,566.9333333333334,294.6538461538462,566,293" marker-end="url(#arrow)" stroke="#000000" stroke-width="1.54786px" opacity="0.14786230383358645" fill="none"></path><g transform="translate(548, 334)"><rect rx="3" fill="#FFFFFF" opacity="0.9" x="-9.985267639160156" y="-7.699999999999999" height="9.9" width="19.970535278320312"></rect><text font-size="0.5143586911500759rem" font-weight="500" opacity="0.595724607667173" style="text-anchor: middle;">576</text></g></g><g><path d="M281,257C306.66666666666663,231,332.3333333333333,205,358,205C383.6666666666667,205,409.33333333333337,231,435,257" marker-end="url(#arrow)" stroke="#000000" stroke-width="1.55504px" opacity="0.15504164940862442" fill="none"></path><g transform="translate(358, 209)"><rect rx="3" fill="#FFFFFF" opacity="0.9" x="-10.09783935546875" y="-7.699999999999999" height="9.9" width="20.1956787109375"></rect><text font-size="0.5165124948225873rem" font-weight="500" opacity="0.6100832988172489" style="text-anchor: middle;">654</text></g></g><g><path d="M566,257C576.0833333333333,248.5,586.1666666666666,240,596,240C605.8333333333334,240,615.4166666666667,248.5,625,257" marker-end="url(#arrow)" stroke="#000000" stroke-width="1.55826px" opacity="0.15826315062819274" fill="none"></path><g transform="translate(596, 244)"><rect rx="3" fill="#FFFFFF" opacity="0.9" x="-10.103408813476562" y="-7.699999999999999" height="9.9" width="20.206817626953125"></rect><text font-size="0.5174789451884578rem" font-weight="500" opacity="0.6165263012563855" style="text-anchor: middle;">689</text></g></g><g><path d="M376,257C386.08333333333337,248.5,396.1666666666667,240,406,240C415.8333333333333,240,425.41666666666663,248.5,435,257" marker-end="url(#arrow)" stroke="#000000" stroke-width="1.56535px" opacity="0.16535045331124304" fill="none"></path><g transform="translate(406, 244)"><rect rx="3" fill="#FFFFFF" opacity="0.9" x="-10.046554565429688" y="-7.699999999999999" height="9.9" width="20.093109130859375"></rect><text font-size="0.5196051359933729rem" font-weight="500" opacity="0.630700906622486" style="text-anchor: middle;">766</text></g></g><g><path d="M281,257C370,161.5,459,66,548,66C637,66,726,161.5,815,257" marker-end="url(#arrow)" stroke="#000000" stroke-width="1.56747px" opacity="0.16746743982695939" fill="none"></path><g transform="translate(548, 70)"><rect rx="3" fill="#FFFFFF" opacity="0.9" x="-10.039833068847656" y="-7.699999999999999" height="9.9" width="20.079666137695312"></rect><text font-size="0.5202402319480878rem" font-weight="500" opacity="0.6349348796539187" style="text-anchor: middle;">789</text></g></g><g><path d="M625,293C615.4166666666667,301.5,605.8333333333334,310,596,310C586.1666666666666,310,576.0833333333333,301.5,566,293" marker-end="url(#arrow)" stroke="#000000" stroke-width="1.56866px" opacity="0.16866399742279903" fill="none"></path><g transform="translate(596, 314)"><rect rx="3" fill="#FFFFFF" opacity="0.9" x="-10.119049072265625" y="-7.699999999999999" height="9.9" width="20.23809814453125"></rect><text font-size="0.5205991992268397rem" font-weight="500" opacity="0.6373279948455981" style="text-anchor: middle;">802</text></g></g><g><path d="M186,257C211.66666666666666,231,237.33333333333331,205,263,205C288.6666666666667,205,314.33333333333337,231,340,257" marker-end="url(#arrow)" stroke="#000000" stroke-width="1.57612px" opacity="0.1761194716738" fill="none"></path><g transform="translate(263, 209)"><rect rx="3" fill="#FFFFFF" opacity="0.9" x="-10.141265869140625" y="-7.699999999999999" height="9.9" width="20.28253173828125"></rect><text font-size="0.52283584150214rem" font-weight="500" opacity="0.6522389433476" style="text-anchor: middle;">883</text></g></g><g><path d="M91,257C116.66666666666667,231,142.33333333333334,205,168,205C193.66666666666666,205,219.33333333333331,231,245,257" marker-end="url(#arrow)" stroke="#000000" stroke-width="1.58173px" opacity="0.18173408808504765" fill="none"></path><g transform="translate(168, 209)"><rect rx="3" fill="#FFFFFF" opacity="0.9" x="-10.258285522460938" y="-7.699999999999999" height="9.9" width="20.516571044921875"></rect><text font-size="0.5245202264255143rem" font-weight="500" opacity="0.6634681761700952" style="text-anchor: middle;">944</text></g></g><g><path d="M340,293C339.06666666666666,294.6538461538462,338.1333333333333,296.3076923076923,337,300C335.8666666666667,303.6923076923077,334.5333333333333,309.42307692307696,338,316C341.4666666666667,322.57692307692304,349.73333333333335,330,358,330C366.26666666666665,330,374.53333333333336,322.5769230769231,378,316C381.46666666666664,309.4230769230769,380.1333333333333,303.6923076923077,379,300C377.8666666666667,296.3076923076923,376.93333333333334,294.6538461538462,376,293" marker-end="url(#arrow)" stroke="#000000" stroke-width="1.58523px" opacity="0.18523171798057897" fill="none"></path><g transform="translate(358, 334)"><rect rx="3" fill="#FFFFFF" opacity="0.9" x="-10.170204162597656" y="-7.699999999999999" height="9.9" width="20.340408325195312"></rect><text font-size="0.5255695153941737rem" font-weight="500" opacity="0.6704634359611579" style="text-anchor: middle;">982</text></g></g><g><path d="M566,257C576.0833333333333,248.5,586.1666666666666,240,596,240C605.8333333333334,240,615.4166666666667,248.5,625,257" marker-end="url(#arrow)" stroke="#000000" stroke-width="1.58532px" opacity="0.18532376087256663" fill="none"></path><g transform="translate(596, 244)"><rect rx="3" fill="#FFFFFF" opacity="0.9" x="-10.170204162597656" y="-7.699999999999999" height="9.9" width="20.340408325195312"></rect><text font-size="0.52559712826177rem" font-weight="500" opacity="0.6706475217451332" style="text-anchor: middle;">983</text></g></g><g><path d="M186,257C306.6666666666667,127,427.33333333333337,-3,548,-3C668.6666666666666,-3,789.3333333333333,127,910,257" marker-end="url(#arrow)" stroke="#000000" stroke-width="1.58983px" opacity="0.18983386257996226" fill="none"></path><g transform="translate(548, 1)"><rect rx="3" fill="#FFFFFF" opacity="0.9" x="-11.876007080078125" y="-7.699999999999999" height="9.9" width="23.75201416015625"></rect><text font-size="0.5269501587739887rem" font-weight="500" opacity="0.6796677251599246" style="text-anchor: middle;">1032</text></g></g><g><path d="M435,293C393.75,336,352.5,379,311,379C269.5,379,227.75,336,186,293" marker-end="url(#arrow)" stroke="#000000" stroke-width="1.59287px" opacity="0.19287127801555526" fill="none"></path><g transform="translate(311, 383)"><rect rx="3" fill="#FFFFFF" opacity="0.9" x="-11.888351440429688" y="-7.699999999999999" height="9.9" width="23.776702880859375"></rect><text font-size="0.5278613834046666rem" font-weight="500" opacity="0.6857425560311106" style="text-anchor: middle;">1065</text></g></g><g><path d="M91,257C132.75,214,174.5,171,216,171C257.5,171,298.75,214,340,257" marker-end="url(#arrow)" stroke="#000000" stroke-width="1.59711px" opacity="0.1971052510469879" fill="none"></path><g transform="translate(216, 175)"><rect rx="3" fill="#FFFFFF" opacity="0.9" x="-9.8125" y="-7.699999999999999" height="9.9" width="19.625"></rect><text font-size="0.5291315753140964rem" font-weight="500" opacity="0.6942105020939758" style="text-anchor: middle;">1111</text></g></g><g><path d="M376,257C449.4166666666667,179,522.8333333333334,101,596,101C669.1666666666666,101,742.0833333333333,179,815,257" marker-end="url(#arrow)" stroke="#000000" stroke-width="1.60382px" opacity="0.20382438216208754" fill="none"></path><g transform="translate(596, 105)"><rect rx="3" fill="#FFFFFF" opacity="0.9" x="-11.272613525390625" y="-7.699999999999999" height="9.9" width="22.54522705078125"></rect><text font-size="0.5311473146486263rem" font-weight="500" opacity="0.7076487643241751" style="text-anchor: middle;">1184</text></g></g><g><path d="M245,293C235.41666666666669,301.5,225.83333333333334,310,216,310C206.16666666666666,310,196.08333333333331,301.5,186,293" marker-end="url(#arrow)" stroke="#000000" stroke-width="1.61367px" opacity="0.21367297160476784" fill="none"></path><g transform="translate(216, 314)"><rect rx="3" fill="#FFFFFF" opacity="0.9" x="-11.1953125" y="-7.699999999999999" height="9.9" width="22.390625"></rect><text font-size="0.5341018914814304rem" font-weight="500" opacity="0.7273459432095356" style="text-anchor: middle;">1291</text></g></g><g><path d="M245,293C244.06666666666666,294.6538461538462,243.13333333333335,296.3076923076923,242,300C240.86666666666665,303.6923076923077,239.53333333333333,309.42307692307696,243,316C246.46666666666667,322.57692307692304,254.73333333333335,330,263,330C271.26666666666665,330,279.5333333333333,322.5769230769231,283,316C286.4666666666667,309.4230769230769,285.1333333333333,303.6923076923077,284,300C282.8666666666667,296.3076923076923,281.93333333333334,294.6538461538462,281,293" marker-end="url(#arrow)" stroke="#000000" stroke-width="1.67451px" opacity="0.2745133232086152" fill="none"></path><g transform="translate(263, 334)"><rect rx="3" fill="#FFFFFF" opacity="0.9" x="-12.191474914550781" y="-8.399999999999999" height="10.8" width="24.382949829101562"></rect><text font-size="0.5523539969625846rem" font-weight="500" opacity="0.8490266464172305" style="text-anchor: middle;">1952</text></g></g><g><path d="M186,257C196.08333333333331,248.5,206.16666666666666,240,216,240C225.83333333333334,240,235.41666666666669,248.5,245,257" marker-end="url(#arrow)" stroke="#000000" stroke-width="1.68685px" opacity="0.2868470707349625" fill="none"></path><g transform="translate(216, 244)"><rect rx="3" fill="#FFFFFF" opacity="0.9" x="-12.903251647949219" y="-8.399999999999999" height="10.8" width="25.806503295898438"></rect><text font-size="0.5560541212204887rem" font-weight="500" opacity="0.873694141469925" style="text-anchor: middle;">2086</text></g></g><g><path d="M186,257C227.75,214,269.5,171,311,171C352.5,171,393.75,214,435,257" marker-end="url(#arrow)" stroke="#000000" stroke-width="1.79435px" opacity="0.39435316857655667" fill="none"></path><g transform="translate(311, 175)"><rect rx="3" fill="#FFFFFF" opacity="0.9" x="-13.836296081542969" y="-8.399999999999999" height="10.8" width="27.672592163085938"></rect><text font-size="0.588305950572967rem" font-weight="500" opacity="1.0887063371531134" style="text-anchor: middle;">3254</text></g></g><g><path d="M91,257C148.33333333333334,196.5,205.66666666666669,136,263,136C320.3333333333333,136,377.66666666666663,196.5,435,257" marker-end="url(#arrow)" stroke="#000000" stroke-width="1.9257px" opacity="0.5256983754429564" fill="none"></path><g transform="translate(263, 140)"><rect rx="3" fill="#FFFFFF" opacity="0.9" x="-14.0078125" y="-9.799999999999999" height="12.6" width="28.015625"></rect><text font-size="0.6277095126328869rem" font-weight="500" opacity="1.3513967508859128" style="text-anchor: middle;">4681</text></g></g><g><path d="M186,257C291.0833333333333,144.5,396.16666666666663,32,501,32C605.8333333333334,32,710.4166666666667,144.5,815,257" marker-end="url(#arrow)" stroke="#000000" stroke-width="1.93288px" opacity="0.5328777210179944" fill="none"></path><g transform="translate(501, 36)"><rect rx="3" fill="#FFFFFF" opacity="0.9" x="-14.895751953125" y="-9.799999999999999" height="12.6" width="29.79150390625"></rect><text font-size="0.6298633163053983rem" font-weight="500" opacity="1.3657554420359888" style="text-anchor: middle;">4759</text></g></g><g><path d="M91,257C211.66666666666669,127,332.33333333333337,-3,453,-3C573.6666666666666,-3,694.3333333333333,127,815,257" marker-end="url(#arrow)" stroke="#000000" stroke-width="2.09994px" opacity="0.6999355699756086" fill="none"></path><g transform="translate(453, 1)"><rect rx="3" fill="#FFFFFF" opacity="0.9" x="-15.464561462402344" y="-10.5" height="13.5" width="30.929122924804688"></rect><text font-size="0.6799806709926826rem" font-weight="500" opacity="1.6998711399512172" style="text-anchor: middle;">6574</text></g></g><g><path d="M471,257C528.3333333333333,196.5,585.6666666666666,136,643,136C700.3333333333334,136,757.6666666666667,196.5,815,257" marker-end="url(#arrow)" stroke="#000000" stroke-width="2.14955px" opacity="0.7495466887569607" fill="none"></path><g transform="translate(643, 140)"><rect rx="3" fill="#FFFFFF" opacity="0.9" x="-13.5390625" y="-10.5" height="13.5" width="27.078125"></rect><text font-size="0.6948640066270882rem" font-weight="500" opacity="1.7990933775139215" style="text-anchor: middle;">7113</text></g></g><g><path d="M435,293C434.06666666666666,294.6538461538462,433.1333333333333,296.3076923076923,432,300C430.8666666666667,303.6923076923077,429.5333333333333,309.42307692307696,433,316C436.4666666666667,322.57692307692304,444.73333333333335,330,453,330C461.26666666666665,330,469.5333333333333,322.5769230769231,473,316C476.4666666666667,309.4230769230769,475.1333333333333,303.6923076923077,474,300C472.8666666666667,296.3076923076923,471.93333333333334,294.6538461538462,471,293" marker-end="url(#arrow)" stroke="#000000" stroke-width="2.33814px" opacity="0.9381425744396888" fill="none"></path><g transform="translate(453, 334)"><rect rx="3" fill="#FFFFFF" opacity="0.9" x="-15.626502990722656" y="-11.2" height="14.4" width="31.253005981445312"></rect><text font-size="0.7514427723319066rem" font-weight="500" opacity="2.1762851488793777" style="text-anchor: middle;">9162</text></g></g><g><path d="M91,257C101.08333333333333,248.5,111.16666666666666,240,121,240C130.83333333333334,240,140.41666666666669,248.5,150,257" marker-end="url(#arrow)" stroke="#000000" stroke-width="2.38094px" opacity="0.9809425192139537" fill="none"></path><g transform="translate(121, 244)"><rect rx="3" fill="#FFFFFF" opacity="0.9" x="-16.712158203125" y="-11.2" height="14.4" width="33.42431640625"></rect><text font-size="0.764282755764186rem" font-weight="500" opacity="2.2618850384279074" style="text-anchor: middle;">9627</text></g></g><g><path d="M150,293C149.06666666666666,294.6538461538462,148.13333333333335,296.3076923076923,147,300C145.86666666666665,303.6923076923077,144.53333333333333,309.42307692307696,148,316C151.46666666666667,322.57692307692304,159.73333333333335,330,168,330C176.26666666666665,330,184.53333333333333,322.5769230769231,188,316C191.46666666666667,309.4230769230769,190.13333333333335,303.6923076923077,189,300C187.86666666666665,296.3076923076923,186.93333333333334,294.6538461538462,186,293" marker-end="url(#arrow)" stroke="#000000" stroke-width="3.26465px" opacity="1.8646463251875376" fill="none"></path><g transform="translate(168, 334)"><rect rx="3" fill="#FFFFFF" opacity="0.9" x="-24.625" y="-15.399999999999999" height="19.8" width="49.25"></rect><text font-size="1.029393897556261rem" font-weight="500" opacity="4.029292650375075" style="text-anchor: middle;">19228</text></g></g><g><path d="M851,257C861.0833333333333,248.5,871.1666666666666,240,881,240C890.8333333333334,240,900.4166666666667,248.5,910,257" marker-end="url(#arrow)" stroke="#000000" stroke-width="3.5px" opacity="2.1" fill="none"></path><g transform="translate(881, 244)"><rect rx="3" fill="#FFFFFF" opacity="0.9" x="-26.02967071533203" y="-16.099999999999998" height="20.7" width="52.05934143066406"></rect><text font-size="1.1rem" font-weight="500" opacity="4.5" style="text-anchor: middle;">21785</text></g></g><g transform="translate(73, 275)"><circle r="20" fill="#FFFFFF" stroke="none"></circle><text dy="0.325em" font-weight="600" font-size="0.75rem" style="text-anchor: middle;">start</text></g><g transform="translate(168, 275)"><circle r="20" fill="#BFDBFE" stroke="#000000"></circle><text dy="0.325em" font-weight="600" font-size="0.75rem" style="text-anchor: middle;">T1</text></g><g transform="translate(263, 275)"><circle r="20" fill="#BFDBFE" stroke="#000000"></circle><text dy="0.325em" font-weight="600" font-size="0.75rem" style="text-anchor: middle;">T2</text></g><g transform="translate(358, 275)"><circle r="20" fill="#BFDBFE" stroke="#000000"></circle><text dy="0.325em" font-weight="600" font-size="0.75rem" style="text-anchor: middle;">T3</text></g><g transform="translate(453, 275)"><circle r="20" fill="#BFDBFE" stroke="#000000"></circle><text dy="0.325em" font-weight="600" font-size="0.75rem" style="text-anchor: middle;">T4</text></g><g transform="translate(548, 275)"><circle r="20" fill="#BFDBFE" stroke="#000000"></circle><text dy="0.325em" font-weight="600" font-size="0.75rem" style="text-anchor: middle;">T5</text></g><g transform="translate(643, 275)"><circle r="20" fill="#BFDBFE" stroke="#000000"></circle><text dy="0.325em" font-weight="600" font-size="0.75rem" style="text-anchor: middle;">T6</text></g><g transform="translate(738, 275)"><circle r="20" fill="#BFDBFE" stroke="#000000"></circle><text dy="0.325em" font-weight="600" font-size="0.75rem" style="text-anchor: middle;">T7</text></g><g transform="translate(833, 275)"><circle r="20" fill="#BFDBFE" stroke="#000000"></circle><text dy="0.325em" font-weight="600" font-size="0.75rem" style="text-anchor: middle;">PASS</text></g><g transform="translate(928, 275)"><circle r="20" fill="#FFFFFF" stroke="none"></circle><text dy="0.325em" font-weight="600" font-size="0.75rem" style="text-anchor: middle;">end</text></g><marker id="arrow" orient="auto" viewBox="0 0 40 40" refX="27" refY="20" markerWidth="11" markerHeight="11" markerUnits="userSpaceOnUse"><path d="M 0 0 L 40 20 L 0 40 z"></path></marker></g></svg>