<svg xmlns:xlink="http://www.w3.org/1999/xlink" xmlns="http://www.w3.org/2000/svg" width="1000" height="700" style="font-family: ui-sans-serif, system-ui, -apple-system, BlinkMacSystemFont, &quot;Segoe UI&quot;, Roboto, &quot;Helvetica Neue&quot;, Arial, &quot;Noto Sans&quot;, sans-serif, &quot;Apple Color Emoji&quot;, &quot;Segoe UI Emoji&quot;, &quot;Segoe UI Symbol&quot;, &quot;Noto Color Emoji&quot;; background-color: white;"><g><path d="M453,350C421.33333333333337,385,389.6666666666667,420,358,420C326.3333333333333,420,294.66666666666663,385,263,350" marker-end="url(#end-arrow0)" stroke="#000000" stroke-linecap="round" stroke-width="1" stroke-opacity="0.1" fill="none"></path><g transform="translate(358, 420)"><rect rx="2" fill="#FFFFFF" opacity="0.85" x="-6.720703125" y="-8.25" height="11" width="13.44140625"></rect><text font-size="0.5rem" font-weight="500" opacity="0.5" style="text-anchor: middle;">56</text></g></g><g><path d="M358,350C326.3333333333333,385,294.66666666666663,420,263,420C231.33333333333334,420,199.66666666666669,385,168,350" marker-end="url(#end-arrow1)" stroke="#000000" stroke-linecap="round" stroke-width="1.03958px" stroke-opacity="0.111874" fill="none"></path><g transform="translate(263, 420)"><rect rx="2" fill="#FFFFFF" opacity="0.85" x="-8.433624267578125" y="-8.25" height="11" width="16.86724853515625"></rect><text font-size="0.5029683832666022rem" font-weight="500" opacity="0.5158313774218786" style="text-anchor: middle;">142</text></g></g><g><path d="M548,350C532.4166666666666,367.5,516.8333333333333,385,501,385C485.1666666666667,385,469.08333333333337,367.5,453,350" marker-end="url(#end-arrow2)" stroke="#000000" stroke-linecap="round" stroke-width="1.0428px" stroke-opacity="0.11284" fill="none"></path><g transform="translate(501, 385)"><rect rx="2" fill="#FFFFFF" opacity="0.85" x="-8.438522338867188" y="-8.25" height="11" width="16.877044677734375"></rect><text font-size="0.5032099958580699rem" font-weight="500" opacity="0.5171199779097059" style="text-anchor: middle;">149</text></g></g><g><path d="M643,350C611.3333333333333,385,579.6666666666666,420,548,420C516.3333333333334,420,484.6666666666667,385,453,350" marker-end="url(#end-arrow3)" stroke="#000000" stroke-linecap="round" stroke-width="1.04372px" stroke-opacity="0.113116" fill="none"></path><g transform="translate(548, 420)"><rect rx="2" fill="#FFFFFF" opacity="0.85" x="-7.4765625" y="-8.25" height="11" width="14.953125"></rect><text font-size="0.5032790280270606rem" font-weight="500" opacity="0.5174881494776566" style="text-anchor: middle;">151</text></g></g><g><path d="M643,350C633,359.42857142857144,623,368.85714285714283,623,379C623,389.14285714285717,633,400,643,400C653,400,663,389.14285714285717,663,379C663,368.85714285714283,653,359.42857142857144,643,350" marker-end="url(#end-arrow4)" stroke="#000000" stroke-linecap="round" stroke-width="1.06213px" stroke-opacity="0.118639" fill="none"></path><g transform="translate(643, 400)"><rect rx="2" fill="#FFFFFF" opacity="0.85" x="-7.5" y="-8.25" height="11" width="15"></rect><text font-size="0.5046596714068756rem" font-weight="500" opacity="0.5248515808366699" style="text-anchor: middle;">191</text></g></g><g><path d="M548,350C484.66666666666663,419.5,421.3333333333333,489,358,489C294.6666666666667,489,231.33333333333334,419.5,168,350" marker-end="url(#end-arrow5)" stroke="#000000" stroke-linecap="round" stroke-width="1.06719px" stroke-opacity="0.120157" fill="none"></path><g transform="translate(358, 489)"><rect rx="2" fill="#FFFFFF" opacity="0.85" x="-8.985809326171875" y="-8.25" height="11" width="17.97161865234375"></rect><text font-size="0.5050393483363247rem" font-weight="500" opacity="0.5268765244603986" style="text-anchor: middle;">202</text></g></g><g><path d="M263,350C279.08333333333337,332.5,295.1666666666667,315,311,315C326.8333333333333,315,342.41666666666663,332.5,358,350" marker-end="url(#end-arrow6)" stroke="#000000" stroke-linecap="round" stroke-width="1.06995px" stroke-opacity="0.120986" fill="none"></path><g transform="translate(311, 315)"><rect rx="2" fill="#FFFFFF" opacity="0.85" x="-8.985809326171875" y="-8.25" height="11" width="17.97161865234375"></rect><text font-size="0.505246444843297rem" font-weight="500" opacity="0.5279810391642505" style="text-anchor: middle;">208</text></g></g><g><path d="M263,350C374.0833333333333,228.5,485.16666666666663,107,596,107C706.8333333333334,107,817.4166666666667,228.5,928,350" marker-end="url(#end-arrow7)" stroke="#000000" stroke-linecap="round" stroke-width="1.08054px" stroke-opacity="0.124161" fill="none"></path><g transform="translate(596, 107)"><rect rx="2" fill="#FFFFFF" opacity="0.85" x="-8.125" y="-8.25" height="11" width="16.25"></rect><text font-size="0.5060403147866906rem" font-weight="500" opacity="0.5322150121956832" style="text-anchor: middle;">231</text></g></g><g><path d="M643,350C564.0833333333334,437,485.1666666666667,524,406,524C326.8333333333333,524,247.41666666666666,437,168,350" marker-end="url(#end-arrow8)" stroke="#000000" stroke-linecap="round" stroke-width="1.08422px" stroke-opacity="0.125266" fill="none"></path><g transform="translate(406, 524)"><rect rx="2" fill="#FFFFFF" opacity="0.85" x="-8.996917724609375" y="-8.25" height="11" width="17.99383544921875"></rect><text font-size="0.5063164434626536rem" font-weight="500" opacity="0.5336876984674859" style="text-anchor: middle;">239</text></g></g><g><path d="M168,350C247.41666666666666,263,326.8333333333333,176,406,176C485.1666666666667,176,564.0833333333334,263,643,350" marker-end="url(#end-arrow9)" stroke="#000000" stroke-linecap="round" stroke-width="1.10585px" stroke-opacity="0.131755" fill="none"></path><g transform="translate(406, 176)"><rect rx="2" fill="#FFFFFF" opacity="0.85" x="-9.008026123046875" y="-8.25" height="11" width="18.01605224609375"></rect><text font-size="0.5079386994339362rem" font-weight="500" opacity="0.5423397303143265" style="text-anchor: middle;">286</text></g></g><g><path d="M453,350C532.4166666666667,263,611.8333333333334,176,691,176C770.1666666666666,176,849.0833333333333,263,928,350" marker-end="url(#end-arrow10)" stroke="#000000" stroke-linecap="round" stroke-width="1.11229px" stroke-opacity="0.133688" fill="none"></path><g transform="translate(691, 176)"><rect rx="2" fill="#FFFFFF" opacity="0.85" x="-9.013565063476562" y="-8.25" height="11" width="18.027130126953125"></rect><text font-size="0.5084219246168714rem" font-weight="500" opacity="0.5449169312899811" style="text-anchor: middle;">300</text></g></g><g><path d="M73,350C152.41666666666666,263,231.83333333333331,176,311,176C390.1666666666667,176,469.08333333333337,263,548,350" marker-end="url(#end-arrow11)" stroke="#000000" stroke-linecap="round" stroke-width="1.14957px" stroke-opacity="0.144871" fill="none"></path><g transform="translate(311, 176)"><rect rx="2" fill="#FFFFFF" opacity="0.85" x="-8.1796875" y="-8.25" height="11" width="16.359375"></rect><text font-size="0.5112177274609968rem" font-weight="500" opacity="0.5598278797919831" style="text-anchor: middle;">381</text></g></g><g><path d="M643,350C674.6666666666667,315,706.3333333333334,280,738,280C769.6666666666666,280,801.3333333333333,315,833,350" marker-end="url(#end-arrow12)" stroke="#000000" stroke-linecap="round" stroke-width="1.15049px" stroke-opacity="0.145147" fill="none"></path><g transform="translate(738, 280)"><rect rx="2" fill="#FFFFFF" opacity="0.85" x="-9.041336059570312" y="-8.25" height="11" width="18.082672119140625"></rect><text font-size="0.5112867596299876rem" font-weight="500" opacity="0.5601960513599338" style="text-anchor: middle;">383</text></g></g><g><path d="M168,350C231.33333333333334,280.5,294.6666666666667,211,358,211C421.3333333333333,211,484.66666666666663,280.5,548,350" marker-end="url(#end-arrow13)" stroke="#000000" stroke-linecap="round" stroke-width="1.17028px" stroke-opacity="0.151084" fill="none"></path><g transform="translate(358, 211)"><rect rx="2" fill="#FFFFFF" opacity="0.85" x="-9.638519287109375" y="-8.25" height="11" width="19.27703857421875"></rect><text font-size="0.5127709512632886rem" font-weight="500" opacity="0.5681117400708731" style="text-anchor: middle;">426</text></g></g><g><path d="M453,350C469.0833333333333,332.5,485.16666666666663,315,501,315C516.8333333333334,315,532.4166666666667,332.5,548,350" marker-end="url(#end-arrow14)" stroke="#000000" stroke-linecap="round" stroke-width="1.19789px" stroke-opacity="0.159368" fill="none"></path><g transform="translate(501, 315)"><rect rx="2" fill="#FFFFFF" opacity="0.85" x="-9.655487060546875" y="-8.25" height="11" width="19.31097412109375"></rect><text font-size="0.5148419163330111rem" font-weight="500" opacity="0.579156887109393" style="text-anchor: middle;">486</text></g></g><g><path d="M453,350C484.6666666666667,315,516.3333333333334,280,548,280C579.6666666666666,280,611.3333333333333,315,643,350" marker-end="url(#end-arrow15)" stroke="#000000" stroke-linecap="round" stroke-width="1.21446px" stroke-opacity="0.164338" fill="none"></path><g transform="translate(548, 280)"><rect rx="2" fill="#FFFFFF" opacity="0.85" x="-9.0802001953125" y="-8.25" height="11" width="18.160400390625"></rect><text font-size="0.5160844953748447rem" font-weight="500" opacity="0.5857839753325049" style="text-anchor: middle;">522</text></g></g><g><path d="M548,350C538,359.42857142857144,528,368.85714285714283,528,379C528,389.14285714285717,538,400,548,400C558,400,568,389.14285714285717,568,379C568,368.85714285714283,558,359.42857142857144,548,350" marker-end="url(#end-arrow16)" stroke="#000000" stroke-linecap="round" stroke-width="1.23931px" stroke-opacity="0.171793" fill="none"></path><g transform="translate(548, 400)"><rect rx="2" fill="#FFFFFF" opacity="0.85" x="-9.018013000488281" y="-8.25" height="11" width="18.036026000976562"></rect><text font-size="0.5179483639375949rem" font-weight="500" opacity="0.595724607667173" style="text-anchor: middle;">576</text></g></g><g><path d="M263,350C294.66666666666663,315,326.3333333333333,280,358,280C389.6666666666667,280,421.33333333333337,315,453,350" marker-end="url(#end-arrow17)" stroke="#000000" stroke-linecap="round" stroke-width="1.27521px" stroke-opacity="0.182562" fill="none"></path><g transform="translate(358, 280)"><rect rx="2" fill="#FFFFFF" opacity="0.85" x="-9.136810302734375" y="-8.25" height="11" width="18.27362060546875"></rect><text font-size="0.5206406185282342rem" font-weight="500" opacity="0.6100832988172489" style="text-anchor: middle;">654</text></g></g><g><path d="M548,350C564.0833333333333,332.5,580.1666666666666,315,596,315C611.8333333333334,315,627.4166666666667,332.5,643,350" marker-end="url(#end-arrow18)" stroke="#000000" stroke-linecap="round" stroke-width="1.29132px" stroke-opacity="0.187395" fill="none"></path><g transform="translate(596, 315)"><rect rx="2" fill="#FFFFFF" opacity="0.85" x="-9.142372131347656" y="-8.25" height="11" width="18.284744262695312"></rect><text font-size="0.5218486814855723rem" font-weight="500" opacity="0.6165263012563855" style="text-anchor: middle;">689</text></g></g><g><path d="M358,350C374.08333333333337,332.5,390.1666666666667,315,406,315C421.8333333333333,315,437.41666666666663,332.5,453,350" marker-end="url(#end-arrow19)" stroke="#000000" stroke-linecap="round" stroke-width="1.32675px" stroke-opacity="0.198026" fill="none"></path><g transform="translate(406, 315)"><rect rx="2" fill="#FFFFFF" opacity="0.85" x="-9.090324401855469" y="-8.25" height="11" width="18.180648803710938"></rect><text font-size="0.5245064199917161rem" font-weight="500" opacity="0.630700906622486" style="text-anchor: middle;">766</text></g></g><g><path d="M263,350C358,245.5,453,141,548,141C643,141,738,245.5,833,350" marker-end="url(#end-arrow20)" stroke="#000000" stroke-linecap="round" stroke-width="1.33734px" stroke-opacity="0.201201" fill="none"></path><g transform="translate(548, 141)"><rect rx="2" fill="#FFFFFF" opacity="0.85" x="-9.078033447265625" y="-8.25" height="11" width="18.15606689453125"></rect><text font-size="0.5253002899351098rem" font-weight="500" opacity="0.6349348796539187" style="text-anchor: middle;">789</text></g></g><g><path d="M643,350C627.4166666666667,367.5,611.8333333333334,385,596,385C580.1666666666666,385,564.0833333333333,367.5,548,350" marker-end="url(#end-arrow21)" stroke="#000000" stroke-linecap="round" stroke-width="1.34332px" stroke-opacity="0.202996" fill="none"></path><g transform="translate(596, 385)"><rect rx="2" fill="#FFFFFF" opacity="0.85" x="-9.169021606445312" y="-8.25" height="11" width="18.338043212890625"></rect><text font-size="0.5257489990335497rem" font-weight="500" opacity="0.6373279948455981" style="text-anchor: middle;">802</text></g></g><g><path d="M168,350C199.66666666666666,315,231.33333333333331,280,263,280C294.6666666666667,280,326.33333333333337,315,358,350" marker-end="url(#end-arrow22)" stroke="#000000" stroke-linecap="round" stroke-width="1.3806px" stroke-opacity="0.214179" fill="none"></path><g transform="translate(263, 280)"><rect rx="2" fill="#FFFFFF" opacity="0.85" x="-9.19122314453125" y="-8.25" height="11" width="18.3824462890625"></rect><text font-size="0.528544801877675rem" font-weight="500" opacity="0.6522389433476" style="text-anchor: middle;">883</text></g></g><g><path d="M73,350C104.66666666666667,315,136.33333333333334,280,168,280C199.66666666666666,280,231.33333333333331,315,263,350" marker-end="url(#end-arrow23)" stroke="#000000" stroke-linecap="round" stroke-width="1.40867px" stroke-opacity="0.222601" fill="none"></path><g transform="translate(168, 280)"><rect rx="2" fill="#FFFFFF" opacity="0.85" x="-9.31500244140625" y="-8.25" height="11" width="18.6300048828125"></rect><text font-size="0.5306502830318929rem" font-weight="500" opacity="0.6634681761700952" style="text-anchor: middle;">944</text></g></g><g><path d="M358,350C348,359.42857142857144,338,368.85714285714283,338,379C338,389.14285714285717,348,400,358,400C368,400,378,389.14285714285717,378,379C378,368.85714285714283,368,359.42857142857144,358,350" marker-end="url(#end-arrow24)" stroke="#000000" stroke-linecap="round" stroke-width="1.42616px" stroke-opacity="0.227848" fill="none"></path><g transform="translate(358, 400)"><rect rx="2" fill="#FFFFFF" opacity="0.85" x="-9.23699951171875" y="-8.25" height="11" width="18.4739990234375"></rect><text font-size="0.5319618942427171rem" font-weight="500" opacity="0.6704634359611579" style="text-anchor: middle;">982</text></g></g><g><path d="M548,350C564.0833333333333,332.5,580.1666666666666,315,596,315C611.8333333333334,315,627.4166666666667,332.5,643,350" marker-end="url(#end-arrow25)" stroke="#000000" stroke-linecap="round" stroke-width="1.42662px" stroke-opacity="0.227986" fill="none"></path><g transform="translate(596, 315)"><rect rx="2" fill="#FFFFFF" opacity="0.85" x="-9.23699951171875" y="-8.25" height="11" width="18.4739990234375"></rect><text font-size="0.5319964103272125rem" font-weight="500" opacity="0.6706475217451332" style="text-anchor: middle;">983</text></g></g><g><path d="M168,350C294.6666666666667,211,421.33333333333337,72,548,72C674.6666666666666,72,801.3333333333333,211,928,350" marker-end="url(#end-arrow26)" stroke="#000000" stroke-linecap="round" stroke-width="1.44917px" stroke-opacity="0.234751" fill="none"></path><g transform="translate(548, 72)"><rect rx="2" fill="#FFFFFF" opacity="0.85" x="-10.951637268066406" y="-8.25" height="11" width="21.903274536132812"></rect><text font-size="0.5336876984674859rem" font-weight="500" opacity="0.6796677251599246" style="text-anchor: middle;">1032</text></g></g><g><path d="M453,350C405.75,402,358.5,454,311,454C263.5,454,215.75,402,168,350" marker-end="url(#end-arrow27)" stroke="#000000" stroke-linecap="round" stroke-width="1.46436px" stroke-opacity="0.239307" fill="none"></path><g transform="translate(311, 454)"><rect rx="2" fill="#FFFFFF" opacity="0.85" x="-10.979286193847656" y="-8.25" height="11" width="21.958572387695312"></rect><text font-size="0.5348267292558332rem" font-weight="500" opacity="0.6857425560311106" style="text-anchor: middle;">1065</text></g></g><g><path d="M73,350C120.75,298,168.5,246,216,246C263.5,246,310.75,298,358,350" marker-end="url(#end-arrow28)" stroke="#000000" stroke-linecap="round" stroke-width="1.48553px" stroke-opacity="0.245658" fill="none"></path><g transform="translate(216, 246)"><rect rx="2" fill="#FFFFFF" opacity="0.85" x="-8.90625" y="-8.25" height="11" width="17.8125"></rect><text font-size="0.5364144691426205rem" font-weight="500" opacity="0.6942105020939758" style="text-anchor: middle;">1111</text></g></g><g><path d="M358,350C437.4166666666667,263,516.8333333333334,176,596,176C675.1666666666666,176,754.0833333333333,263,833,350" marker-end="url(#end-arrow29)" stroke="#000000" stroke-linecap="round" stroke-width="1.51912px" stroke-opacity="0.255737" fill="none"></path><g transform="translate(596, 176)"><rect rx="2" fill="#FFFFFF" opacity="0.85" x="-10.861007690429688" y="-8.25" height="11" width="21.722015380859375"></rect><text font-size="0.5389341433107828rem" font-weight="500" opacity="0.7076487643241751" style="text-anchor: middle;">1184</text></g></g><g><path d="M263,350C247.41666666666669,367.5,231.83333333333334,385,216,385C200.16666666666666,385,184.08333333333331,367.5,168,350" marker-end="url(#end-arrow30)" stroke="#000000" stroke-linecap="round" stroke-width="1.56836px" stroke-opacity="0.270509" fill="none"></path><g transform="translate(216, 385)"><rect rx="2" fill="#FFFFFF" opacity="0.85" x="-10.328125" y="-8.25" height="11" width="20.65625"></rect><text font-size="0.5426273643517879rem" font-weight="500" opacity="0.7273459432095356" style="text-anchor: middle;">1291</text></g></g><g><path d="M263,350C253,359.42857142857144,243,368.85714285714283,243,379C243,389.14285714285717,253,400,263,400C273,400,283,389.14285714285717,283,379C283,368.85714285714283,273,359.42857142857144,263,350" marker-end="url(#end-arrow31)" stroke="#000000" stroke-linecap="round" stroke-width="1.87257px" stroke-opacity="0.36177" fill="none"></path><g transform="translate(263, 400)"><rect rx="2" fill="#FFFFFF" opacity="0.85" x="-11.3671875" y="-9" height="12" width="22.734375"></rect><text font-size="0.5654424962032307rem" font-weight="500" opacity="0.8490266464172305" style="text-anchor: middle;">1952</text></g></g><g><path d="M168,350C184.08333333333331,332.5,200.16666666666666,315,216,315C231.83333333333334,315,247.41666666666669,332.5,263,350" marker-end="url(#end-arrow32)" stroke="#000000" stroke-linecap="round" stroke-width="1.93424px" stroke-opacity="0.380271" fill="none"></path><g transform="translate(216, 315)"><rect rx="2" fill="#FFFFFF" opacity="0.85" x="-12.140625" y="-9" height="12" width="24.28125"></rect><text font-size="0.5700676515256109rem" font-weight="500" opacity="0.873694141469925" style="text-anchor: middle;">2086</text></g></g><g><path d="M168,350C215.75,298,263.5,246,311,246C358.5,246,405.75,298,453,350" marker-end="url(#end-arrow33)" stroke="#000000" stroke-linecap="round" stroke-width="2.47177px" stroke-opacity="0.54153" fill="none"></path><g transform="translate(311, 246)"><rect rx="2" fill="#FFFFFF" opacity="0.85" x="-13.127754211425781" y="-9.75" height="13" width="26.255508422851562"></rect><text font-size="0.6103824382162087rem" font-weight="500" opacity="1.0887063371531134" style="text-anchor: middle;">3254</text></g></g><g><path d="M73,350C136.33333333333334,280.5,199.66666666666669,211,263,211C326.3333333333333,211,389.66666666666663,280.5,453,350" marker-end="url(#end-arrow34)" stroke="#000000" stroke-linecap="round" stroke-width="3.12849px" stroke-opacity="0.738548" fill="none"></path><g transform="translate(263, 211)"><rect rx="2" fill="#FFFFFF" opacity="0.85" x="-13.0390625" y="-10.5" height="14" width="26.078125"></rect><text font-size="0.6596368907911087rem" font-weight="500" opacity="1.3513967508859128" style="text-anchor: middle;">4681</text></g></g><g><path d="M168,350C279.0833333333333,228.5,390.16666666666663,107,501,107C611.8333333333334,107,722.4166666666667,228.5,833,350" marker-end="url(#end-arrow35)" stroke="#000000" stroke-linecap="round" stroke-width="3.16439px" stroke-opacity="0.749317" fill="none"></path><g transform="translate(501, 107)"><rect rx="2" fill="#FFFFFF" opacity="0.85" x="-13.829299926757812" y="-10.5" height="14" width="27.658599853515625"></rect><text font-size="0.6623291453817479rem" font-weight="500" opacity="1.3657554420359888" style="text-anchor: middle;">4759</text></g></g><g><path d="M73,350C199.66666666666669,211,326.33333333333337,72,453,72C579.6666666666666,72,706.3333333333333,211,833,350" marker-end="url(#end-arrow36)" stroke="#000000" stroke-linecap="round" stroke-width="3.99968px" stroke-opacity="0.999903" fill="none"></path><g transform="translate(453, 72)"><rect rx="2" fill="#FFFFFF" opacity="0.85" x="-15.558341979980469" y="-12" height="16" width="31.116683959960938"></rect><text font-size="0.7249758387408533rem" font-weight="500" opacity="1.6998711399512172" style="text-anchor: middle;">6574</text></g></g><g><path d="M453,350C516.3333333333333,280.5,579.6666666666666,211,643,211C706.3333333333334,211,769.6666666666667,280.5,833,350" marker-end="url(#end-arrow37)" stroke="#000000" stroke-linecap="round" stroke-width="4.24773px" stroke-opacity="1.0743200331354412" fill="none"></path><g transform="translate(643, 211)"><rect rx="2" fill="#FFFFFF" opacity="0.85" x="-13.471168518066406" y="-12" height="16" width="26.942337036132812"></rect><text font-size="0.7435800082838603rem" font-weight="500" opacity="1.7990933775139215" style="text-anchor: middle;">7113</text></g></g><g><path d="M453,350C443,359.42857142857144,433,368.85714285714283,433,379C433,389.14285714285717,443,400,453,400C463,400,473,389.14285714285717,473,379C473,368.85714285714283,463,359.42857142857144,453,350" marker-end="url(#end-arrow38)" stroke="#000000" stroke-linecap="round" stroke-width="5.19071px" stroke-opacity="1.3572138616595333" fill="none"></path><g transform="translate(453, 400)"><rect rx="2" fill="#FFFFFF" opacity="0.85" x="-15.5" y="-12.75" height="17" width="31"></rect><text font-size="0.8143034654148833rem" font-weight="500" opacity="2.1762851488793777" style="text-anchor: middle;">9162</text></g></g><g><path d="M73,350C89.08333333333333,332.5,105.16666666666666,315,121,315C136.83333333333334,315,152.41666666666669,332.5,168,350" marker-end="url(#end-arrow39)" stroke="#000000" stroke-linecap="round" stroke-width="5.40471px" stroke-opacity="1.4214137788209307" fill="none"></path><g transform="translate(121, 315)"><rect rx="2" fill="#FFFFFF" opacity="0.85" x="-16.6640625" y="-12.75" height="17" width="33.328125"></rect><text font-size="0.8303534447052326rem" font-weight="500" opacity="2.2618850384279074" style="text-anchor: middle;">9627</text></g></g><g><path d="M168,350C158,359.42857142857144,148,368.85714285714283,148,379C148,389.14285714285717,158.00000000000003,400,168,400C177.99999999999997,400,187.99999999999997,389.14285714285717,188,379C188.00000000000003,368.85714285714283,178,359.42857142857144,168,350" marker-end="url(#end-arrow40)" stroke="#000000" stroke-linecap="round" stroke-width="9.82323px" stroke-opacity="2.7469694877813065" fill="none"></path><g transform="translate(168, 400)"><rect rx="2" fill="#FFFFFF" opacity="0.85" x="-26.73772430419922" y="-18.75" height="25" width="53.47544860839844"></rect><text font-size="1.1617423719453266rem" font-weight="500" opacity="4.029292650375075" style="text-anchor: middle;">19228</text></g></g><g><path d="M833,350C849.0833333333333,332.5,865.1666666666666,315,881,315C896.8333333333334,315,912.4166666666667,332.5,928,350" marker-end="url(#end-arrow41)" stroke="#000000" stroke-linecap="round" stroke-width="11px" stroke-opacity="3.1" fill="none"></path><g transform="translate(881, 315)"><rect rx="2" fill="#FFFFFF" opacity="0.85" x="-28.046875" y="-20.25" height="27" width="56.09375"></rect><text font-size="1.25rem" font-weight="500" opacity="4.5" style="text-anchor: middle;">21785</text></g></g><g transform="translate(73, 350)"><circle r="20" fill="#FFFFFF" stroke="none"></circle><text dy="0.325em" font-weight="600" font-size="0.75rem" style="text-anchor: middle;">start</text></g><g transform="translate(168, 350)"><circle r="20" fill="#BFDBFE" stroke="#000000"></circle><text dy="0.325em" font-weight="600" font-size="0.75rem" style="text-anchor: middle;">T1</text></g><g transform="translate(263, 350)"><circle r="20" fill="#BFDBFE" stroke="#000000"></circle><text dy="0.325em" font-weight="600" font-size="0.75rem" style="text-anchor: middle;">T2</text></g><g transform="translate(358, 350)"><circle r="20" fill="#BFDBFE" stroke="#000000"></circle><text dy="0.325em" font-weight="600" font-size="0.75rem" style="text-anchor: middle;">T3</text></g><g transform="translate(453, 350)"><circle r="20" fill="#BFDBFE" stroke="#000000"></circle><text dy="0.325em" font-weight="600" font-size="0.75rem" style="text-anchor: middle;">T4</text></g><g transform="translate(548, 350)"><circle r="20" fill="#BFDBFE" stroke="#000000"></circle><text dy="0.325em" font-weight="600" font-size="0.75rem" style="text-anchor: middle;">T5</text></g><g transform="translate(643, 350)"><circle r="20" fill="#BFDBFE" stroke="#000000"></circle><text dy="0.325em" font-weight="600" font-size="0.75rem" style="text-anchor: middle;">T6</text></g><g transform="translate(738, 350)"><circle r="20" fill="#BFDBFE" stroke="#000000"></circle><text dy="0.325em" font-weight="600" font-size="0.75rem" style="text-anchor: middle;">T7</text></g><g transform="translate(833, 350)"><circle r="20" fill="#BFDBFE" stroke="#000000"></circle><text dy="0.325em" font-weight="600" font-size="0.75rem" style="text-anchor: middle;">PASS</text></g><g transform="translate(928, 350)"><circle r="20" fill="#FFFFFF" stroke="none"></circle><text dy="0.325em" font-weight="600" font-size="0.75rem" style="text-anchor: middle;">end</text></g></svg>